<mxfile host="app.diagrams.net" modified="2020-06-14T22:12:19.729Z" agent="5.0 (Windows NT 10.0; Win64; x64) AppleWebKit/537.36 (KHTML, like Gecko) Chrome/83.0.4103.61 Safari/537.36" etag="BTIU7tYsYkLr0x1qqGco" version="13.2.4" type="github">
  <diagram id="C5RBs43oDa-KdzZeNtuy" name="Page-1">
    <mxGraphModel dx="1422" dy="832" grid="1" gridSize="10" guides="1" tooltips="1" connect="1" arrows="1" fold="1" page="1" pageScale="1" pageWidth="827" pageHeight="1169" math="0" shadow="0">
      <root>
        <mxCell id="WIyWlLk6GJQsqaUBKTNV-0" />
        <mxCell id="WIyWlLk6GJQsqaUBKTNV-1" parent="WIyWlLk6GJQsqaUBKTNV-0" />
        <mxCell id="GFgyIKS2t7T-ywB0l8Of-3" value="BNr" style="ellipse;whiteSpace=wrap;html=1;" parent="WIyWlLk6GJQsqaUBKTNV-1" vertex="1">
          <mxGeometry y="720" width="70" height="50" as="geometry" />
        </mxCell>
        <mxCell id="GFgyIKS2t7T-ywB0l8Of-6" value="Vorname" style="ellipse;whiteSpace=wrap;html=1;" parent="WIyWlLk6GJQsqaUBKTNV-1" vertex="1">
          <mxGeometry y="570" width="70" height="50" as="geometry" />
        </mxCell>
        <mxCell id="GFgyIKS2t7T-ywB0l8Of-7" value="Nachname" style="ellipse;whiteSpace=wrap;html=1;" parent="WIyWlLk6GJQsqaUBKTNV-1" vertex="1">
          <mxGeometry y="620" width="70" height="50" as="geometry" />
        </mxCell>
        <mxCell id="GFgyIKS2t7T-ywB0l8Of-8" value="" style="endArrow=none;html=1;" parent="WIyWlLk6GJQsqaUBKTNV-1" source="GFgyIKS2t7T-ywB0l8Of-7" target="OlbocpSIzX4zNzRgznni-46" edge="1">
          <mxGeometry width="50" height="50" relative="1" as="geometry">
            <mxPoint x="440" y="910" as="sourcePoint" />
            <mxPoint x="124.4444444444448" y="540" as="targetPoint" />
          </mxGeometry>
        </mxCell>
        <mxCell id="GFgyIKS2t7T-ywB0l8Of-9" value="" style="endArrow=none;html=1;" parent="WIyWlLk6GJQsqaUBKTNV-1" source="GFgyIKS2t7T-ywB0l8Of-6" target="OlbocpSIzX4zNzRgznni-46" edge="1">
          <mxGeometry width="50" height="50" relative="1" as="geometry">
            <mxPoint x="109.08629655533059" y="774.6592088324126" as="sourcePoint" />
            <mxPoint x="109.41176470588289" y="540" as="targetPoint" />
          </mxGeometry>
        </mxCell>
        <mxCell id="GFgyIKS2t7T-ywB0l8Of-10" value="" style="endArrow=none;html=1;" parent="WIyWlLk6GJQsqaUBKTNV-1" source="GFgyIKS2t7T-ywB0l8Of-3" target="OlbocpSIzX4zNzRgznni-46" edge="1">
          <mxGeometry width="50" height="50" relative="1" as="geometry">
            <mxPoint x="86.12151968791159" y="727.8158460183965" as="sourcePoint" />
            <mxPoint x="135.31914893617068" y="540" as="targetPoint" />
          </mxGeometry>
        </mxCell>
        <mxCell id="GFgyIKS2t7T-ywB0l8Of-15" value="KontoNr" style="ellipse;whiteSpace=wrap;html=1;" parent="WIyWlLk6GJQsqaUBKTNV-1" vertex="1">
          <mxGeometry y="670" width="70" height="50" as="geometry" />
        </mxCell>
        <mxCell id="GFgyIKS2t7T-ywB0l8Of-17" value="" style="endArrow=none;html=1;" parent="WIyWlLk6GJQsqaUBKTNV-1" source="OlbocpSIzX4zNzRgznni-41" target="OlbocpSIzX4zNzRgznni-46" edge="1">
          <mxGeometry width="50" height="50" relative="1" as="geometry">
            <mxPoint x="63.37377299400055" y="760.3627361538886" as="sourcePoint" />
            <mxPoint x="90" y="517.8260869565216" as="targetPoint" />
          </mxGeometry>
        </mxCell>
        <mxCell id="GFgyIKS2t7T-ywB0l8Of-18" value="" style="endArrow=none;html=1;" parent="WIyWlLk6GJQsqaUBKTNV-1" source="GFgyIKS2t7T-ywB0l8Of-15" target="OlbocpSIzX4zNzRgznni-46" edge="1">
          <mxGeometry width="50" height="50" relative="1" as="geometry">
            <mxPoint x="89.33069522824303" y="803.1131797828981" as="sourcePoint" />
            <mxPoint x="131.3513513513517" y="540" as="targetPoint" />
          </mxGeometry>
        </mxCell>
        <mxCell id="GFgyIKS2t7T-ywB0l8Of-19" value="Reise" style="rounded=0;whiteSpace=wrap;html=1;" parent="WIyWlLk6GJQsqaUBKTNV-1" vertex="1">
          <mxGeometry x="485" y="270" width="120" height="60" as="geometry" />
        </mxCell>
        <mxCell id="GFgyIKS2t7T-ywB0l8Of-20" value="Ort" style="ellipse;whiteSpace=wrap;html=1;" parent="WIyWlLk6GJQsqaUBKTNV-1" vertex="1">
          <mxGeometry x="430" y="160" width="70" height="50" as="geometry" />
        </mxCell>
        <mxCell id="GFgyIKS2t7T-ywB0l8Of-21" value="Region" style="ellipse;whiteSpace=wrap;html=1;" parent="WIyWlLk6GJQsqaUBKTNV-1" vertex="1">
          <mxGeometry x="500" y="160" width="70" height="50" as="geometry" />
        </mxCell>
        <mxCell id="GFgyIKS2t7T-ywB0l8Of-22" value="Land" style="ellipse;whiteSpace=wrap;html=1;" parent="WIyWlLk6GJQsqaUBKTNV-1" vertex="1">
          <mxGeometry x="565" y="140" width="70" height="50" as="geometry" />
        </mxCell>
        <mxCell id="GFgyIKS2t7T-ywB0l8Of-23" value="Preis" style="ellipse;whiteSpace=wrap;html=1;" parent="WIyWlLk6GJQsqaUBKTNV-1" vertex="1">
          <mxGeometry x="585" y="190" width="70" height="50" as="geometry" />
        </mxCell>
        <mxCell id="GFgyIKS2t7T-ywB0l8Of-24" value="Jahreszeit" style="ellipse;whiteSpace=wrap;html=1;" parent="WIyWlLk6GJQsqaUBKTNV-1" vertex="1">
          <mxGeometry x="655" y="170" width="70" height="50" as="geometry" />
        </mxCell>
        <mxCell id="GFgyIKS2t7T-ywB0l8Of-25" value="Beschreibung" style="ellipse;whiteSpace=wrap;html=1;" parent="WIyWlLk6GJQsqaUBKTNV-1" vertex="1">
          <mxGeometry x="394" y="210" width="80" height="50" as="geometry" />
        </mxCell>
        <mxCell id="GFgyIKS2t7T-ywB0l8Of-26" value="" style="endArrow=none;html=1;" parent="WIyWlLk6GJQsqaUBKTNV-1" source="GFgyIKS2t7T-ywB0l8Of-25" target="GFgyIKS2t7T-ywB0l8Of-19" edge="1">
          <mxGeometry width="50" height="50" relative="1" as="geometry">
            <mxPoint x="500.0020911740739" y="350.47667129347076" as="sourcePoint" />
            <mxPoint x="519.8000000000002" y="280" as="targetPoint" />
          </mxGeometry>
        </mxCell>
        <mxCell id="GFgyIKS2t7T-ywB0l8Of-27" value="" style="endArrow=none;html=1;" parent="WIyWlLk6GJQsqaUBKTNV-1" source="GFgyIKS2t7T-ywB0l8Of-24" target="GFgyIKS2t7T-ywB0l8Of-19" edge="1">
          <mxGeometry width="50" height="50" relative="1" as="geometry">
            <mxPoint x="181.8020911740739" y="380.47667129347076" as="sourcePoint" />
            <mxPoint x="201.60000000000014" y="310" as="targetPoint" />
          </mxGeometry>
        </mxCell>
        <mxCell id="GFgyIKS2t7T-ywB0l8Of-28" value="" style="endArrow=none;html=1;" parent="WIyWlLk6GJQsqaUBKTNV-1" source="GFgyIKS2t7T-ywB0l8Of-23" target="GFgyIKS2t7T-ywB0l8Of-19" edge="1">
          <mxGeometry width="50" height="50" relative="1" as="geometry">
            <mxPoint x="518.1693221927296" y="382.72792763471864" as="sourcePoint" />
            <mxPoint x="585.5555555555557" y="300" as="targetPoint" />
          </mxGeometry>
        </mxCell>
        <mxCell id="GFgyIKS2t7T-ywB0l8Of-29" value="" style="endArrow=none;html=1;" parent="WIyWlLk6GJQsqaUBKTNV-1" source="GFgyIKS2t7T-ywB0l8Of-19" target="GFgyIKS2t7T-ywB0l8Of-22" edge="1">
          <mxGeometry width="50" height="50" relative="1" as="geometry">
            <mxPoint x="528.1693221927296" y="392.72792763471864" as="sourcePoint" />
            <mxPoint x="595.5555555555557" y="310" as="targetPoint" />
          </mxGeometry>
        </mxCell>
        <mxCell id="GFgyIKS2t7T-ywB0l8Of-30" value="" style="endArrow=none;html=1;" parent="WIyWlLk6GJQsqaUBKTNV-1" source="GFgyIKS2t7T-ywB0l8Of-19" target="GFgyIKS2t7T-ywB0l8Of-21" edge="1">
          <mxGeometry width="50" height="50" relative="1" as="geometry">
            <mxPoint x="538.1693221927296" y="402.72792763471864" as="sourcePoint" />
            <mxPoint x="605.5555555555557" y="320" as="targetPoint" />
          </mxGeometry>
        </mxCell>
        <mxCell id="GFgyIKS2t7T-ywB0l8Of-31" value="" style="endArrow=none;html=1;" parent="WIyWlLk6GJQsqaUBKTNV-1" source="GFgyIKS2t7T-ywB0l8Of-19" target="GFgyIKS2t7T-ywB0l8Of-20" edge="1">
          <mxGeometry width="50" height="50" relative="1" as="geometry">
            <mxPoint x="548.1693221927296" y="412.72792763471864" as="sourcePoint" />
            <mxPoint x="615.5555555555557" y="330" as="targetPoint" />
          </mxGeometry>
        </mxCell>
        <mxCell id="GFgyIKS2t7T-ywB0l8Of-34" value="bietet an" style="rhombus;whiteSpace=wrap;html=1;" parent="WIyWlLk6GJQsqaUBKTNV-1" vertex="1">
          <mxGeometry x="505" y="390" width="80" height="80" as="geometry" />
        </mxCell>
        <mxCell id="GFgyIKS2t7T-ywB0l8Of-35" value="" style="endArrow=none;html=1;" parent="WIyWlLk6GJQsqaUBKTNV-1" source="GFgyIKS2t7T-ywB0l8Of-19" target="GFgyIKS2t7T-ywB0l8Of-34" edge="1">
          <mxGeometry width="50" height="50" relative="1" as="geometry">
            <mxPoint x="91.48145278149923" y="261.34657579104885" as="sourcePoint" />
            <mxPoint x="121.53846153846143" y="280" as="targetPoint" />
          </mxGeometry>
        </mxCell>
        <mxCell id="GFgyIKS2t7T-ywB0l8Of-36" value="" style="endArrow=none;html=1;" parent="WIyWlLk6GJQsqaUBKTNV-1" source="OlbocpSIzX4zNzRgznni-50" target="GFgyIKS2t7T-ywB0l8Of-34" edge="1">
          <mxGeometry width="50" height="50" relative="1" as="geometry">
            <mxPoint x="640" y="480" as="sourcePoint" />
            <mxPoint x="640" y="410" as="targetPoint" />
          </mxGeometry>
        </mxCell>
        <mxCell id="GFgyIKS2t7T-ywB0l8Of-38" value="Beschreibung" style="ellipse;whiteSpace=wrap;html=1;" parent="WIyWlLk6GJQsqaUBKTNV-1" vertex="1">
          <mxGeometry x="615" y="660" width="80" height="50" as="geometry" />
        </mxCell>
        <mxCell id="GFgyIKS2t7T-ywB0l8Of-39" value="ANr" style="ellipse;whiteSpace=wrap;html=1;" parent="WIyWlLk6GJQsqaUBKTNV-1" vertex="1">
          <mxGeometry x="585" y="710" width="80" height="50" as="geometry" />
        </mxCell>
        <mxCell id="GFgyIKS2t7T-ywB0l8Of-40" value="RNr" style="ellipse;whiteSpace=wrap;html=1;" parent="WIyWlLk6GJQsqaUBKTNV-1" vertex="1">
          <mxGeometry x="640" y="220" width="60" height="40" as="geometry" />
        </mxCell>
        <mxCell id="GFgyIKS2t7T-ywB0l8Of-41" value="" style="endArrow=none;html=1;" parent="WIyWlLk6GJQsqaUBKTNV-1" source="GFgyIKS2t7T-ywB0l8Of-19" target="GFgyIKS2t7T-ywB0l8Of-40" edge="1">
          <mxGeometry width="50" height="50" relative="1" as="geometry">
            <mxPoint x="730.8720002922889" y="357.8658825248758" as="sourcePoint" />
            <mxPoint x="700.7692307692307" y="340" as="targetPoint" />
          </mxGeometry>
        </mxCell>
        <mxCell id="GFgyIKS2t7T-ywB0l8Of-42" value="" style="endArrow=none;html=1;" parent="WIyWlLk6GJQsqaUBKTNV-1" source="GFgyIKS2t7T-ywB0l8Of-38" target="OlbocpSIzX4zNzRgznni-50" edge="1">
          <mxGeometry width="50" height="50" relative="1" as="geometry">
            <mxPoint x="650" y="340" as="sourcePoint" />
            <mxPoint x="660.5116279069766" y="540" as="targetPoint" />
          </mxGeometry>
        </mxCell>
        <mxCell id="GFgyIKS2t7T-ywB0l8Of-43" value="" style="endArrow=none;html=1;" parent="WIyWlLk6GJQsqaUBKTNV-1" source="OlbocpSIzX4zNzRgznni-50" target="GFgyIKS2t7T-ywB0l8Of-39" edge="1">
          <mxGeometry width="50" height="50" relative="1" as="geometry">
            <mxPoint x="648.9387846193176" y="540" as="sourcePoint" />
            <mxPoint x="660" y="390" as="targetPoint" />
          </mxGeometry>
        </mxCell>
        <mxCell id="GFgyIKS2t7T-ywB0l8Of-44" value="N" style="text;html=1;strokeColor=none;fillColor=none;align=center;verticalAlign=middle;whiteSpace=wrap;rounded=0;" parent="WIyWlLk6GJQsqaUBKTNV-1" vertex="1">
          <mxGeometry x="505" y="470" width="40" height="20" as="geometry" />
        </mxCell>
        <mxCell id="GFgyIKS2t7T-ywB0l8Of-45" value="M" style="text;html=1;strokeColor=none;fillColor=none;align=center;verticalAlign=middle;whiteSpace=wrap;rounded=0;" parent="WIyWlLk6GJQsqaUBKTNV-1" vertex="1">
          <mxGeometry x="540" y="370" width="40" height="20" as="geometry" />
        </mxCell>
        <mxCell id="GFgyIKS2t7T-ywB0l8Of-47" value="Anzahl" style="ellipse;whiteSpace=wrap;html=1;" parent="WIyWlLk6GJQsqaUBKTNV-1" vertex="1">
          <mxGeometry x="570" y="460" width="60" height="40" as="geometry" />
        </mxCell>
        <mxCell id="GFgyIKS2t7T-ywB0l8Of-48" value="" style="endArrow=none;html=1;" parent="WIyWlLk6GJQsqaUBKTNV-1" source="GFgyIKS2t7T-ywB0l8Of-47" target="GFgyIKS2t7T-ywB0l8Of-34" edge="1">
          <mxGeometry width="50" height="50" relative="1" as="geometry">
            <mxPoint x="650" y="340" as="sourcePoint" />
            <mxPoint x="650" y="380" as="targetPoint" />
          </mxGeometry>
        </mxCell>
        <mxCell id="GFgyIKS2t7T-ywB0l8Of-49" value="alternativ" style="rhombus;whiteSpace=wrap;html=1;" parent="WIyWlLk6GJQsqaUBKTNV-1" vertex="1">
          <mxGeometry x="615" y="555" width="70" height="60" as="geometry" />
        </mxCell>
        <mxCell id="GFgyIKS2t7T-ywB0l8Of-50" value="" style="endArrow=none;html=1;exitX=0.5;exitY=1;exitDx=0;exitDy=0;entryX=1;entryY=1;entryDx=0;entryDy=0;" parent="WIyWlLk6GJQsqaUBKTNV-1" source="GFgyIKS2t7T-ywB0l8Of-49" target="OlbocpSIzX4zNzRgznni-50" edge="1">
          <mxGeometry width="50" height="50" relative="1" as="geometry">
            <mxPoint x="650" y="340" as="sourcePoint" />
            <mxPoint x="700" y="540" as="targetPoint" />
          </mxGeometry>
        </mxCell>
        <mxCell id="GFgyIKS2t7T-ywB0l8Of-51" value="" style="endArrow=none;html=1;entryX=0.5;entryY=0;entryDx=0;entryDy=0;exitX=1;exitY=0;exitDx=0;exitDy=0;" parent="WIyWlLk6GJQsqaUBKTNV-1" source="OlbocpSIzX4zNzRgznni-50" target="GFgyIKS2t7T-ywB0l8Of-49" edge="1">
          <mxGeometry width="50" height="50" relative="1" as="geometry">
            <mxPoint x="700" y="480" as="sourcePoint" />
            <mxPoint x="660" y="390" as="targetPoint" />
          </mxGeometry>
        </mxCell>
        <mxCell id="GFgyIKS2t7T-ywB0l8Of-52" value="1" style="text;html=1;strokeColor=none;fillColor=none;align=center;verticalAlign=middle;whiteSpace=wrap;rounded=0;" parent="WIyWlLk6GJQsqaUBKTNV-1" vertex="1">
          <mxGeometry x="615" y="615" width="40" height="20" as="geometry" />
        </mxCell>
        <mxCell id="GFgyIKS2t7T-ywB0l8Of-53" value="0..3" style="text;html=1;strokeColor=none;fillColor=none;align=center;verticalAlign=middle;whiteSpace=wrap;rounded=0;" parent="WIyWlLk6GJQsqaUBKTNV-1" vertex="1">
          <mxGeometry x="615" y="535" width="40" height="20" as="geometry" />
        </mxCell>
        <mxCell id="OlbocpSIzX4zNzRgznni-0" value="Buchung" style="rounded=0;whiteSpace=wrap;html=1;" parent="WIyWlLk6GJQsqaUBKTNV-1" vertex="1">
          <mxGeometry x="90" y="270" width="120" height="60" as="geometry" />
        </mxCell>
        <mxCell id="OlbocpSIzX4zNzRgznni-1" value="bucht" style="rhombus;whiteSpace=wrap;html=1;" parent="WIyWlLk6GJQsqaUBKTNV-1" vertex="1">
          <mxGeometry x="110" y="360" width="80" height="80" as="geometry" />
        </mxCell>
        <mxCell id="OlbocpSIzX4zNzRgznni-2" value="" style="endArrow=none;html=1;entryX=0.5;entryY=1;entryDx=0;entryDy=0;" parent="WIyWlLk6GJQsqaUBKTNV-1" source="OlbocpSIzX4zNzRgznni-46" target="OlbocpSIzX4zNzRgznni-1" edge="1">
          <mxGeometry width="50" height="50" relative="1" as="geometry">
            <mxPoint x="150" y="480" as="sourcePoint" />
            <mxPoint x="140" y="810" as="targetPoint" />
          </mxGeometry>
        </mxCell>
        <mxCell id="OlbocpSIzX4zNzRgznni-3" value="" style="endArrow=none;html=1;entryX=0.5;entryY=0;entryDx=0;entryDy=0;" parent="WIyWlLk6GJQsqaUBKTNV-1" source="OlbocpSIzX4zNzRgznni-0" target="OlbocpSIzX4zNzRgznni-1" edge="1">
          <mxGeometry width="50" height="50" relative="1" as="geometry">
            <mxPoint x="170" y="340" as="sourcePoint" />
            <mxPoint x="160" y="390" as="targetPoint" />
          </mxGeometry>
        </mxCell>
        <mxCell id="OlbocpSIzX4zNzRgznni-4" value="1" style="text;html=1;strokeColor=none;fillColor=none;align=center;verticalAlign=middle;whiteSpace=wrap;rounded=0;" parent="WIyWlLk6GJQsqaUBKTNV-1" vertex="1">
          <mxGeometry x="140" y="440" width="40" height="20" as="geometry" />
        </mxCell>
        <mxCell id="OlbocpSIzX4zNzRgznni-5" value="N" style="text;html=1;strokeColor=none;fillColor=none;align=center;verticalAlign=middle;whiteSpace=wrap;rounded=0;" parent="WIyWlLk6GJQsqaUBKTNV-1" vertex="1">
          <mxGeometry x="140" y="340" width="40" height="20" as="geometry" />
        </mxCell>
        <mxCell id="OlbocpSIzX4zNzRgznni-6" value="beinhaltet" style="rhombus;whiteSpace=wrap;html=1;rotation=0;" parent="WIyWlLk6GJQsqaUBKTNV-1" vertex="1">
          <mxGeometry x="274" y="260" width="80" height="80" as="geometry" />
        </mxCell>
        <mxCell id="OlbocpSIzX4zNzRgznni-7" value="" style="endArrow=none;html=1;exitX=0;exitY=0.5;exitDx=0;exitDy=0;" parent="WIyWlLk6GJQsqaUBKTNV-1" source="OlbocpSIzX4zNzRgznni-6" target="OlbocpSIzX4zNzRgznni-0" edge="1">
          <mxGeometry width="50" height="50" relative="1" as="geometry">
            <mxPoint x="170" y="520" as="sourcePoint" />
            <mxPoint x="170" y="470" as="targetPoint" />
          </mxGeometry>
        </mxCell>
        <mxCell id="OlbocpSIzX4zNzRgznni-8" value="" style="endArrow=none;html=1;exitX=0;exitY=0.5;exitDx=0;exitDy=0;" parent="WIyWlLk6GJQsqaUBKTNV-1" source="GFgyIKS2t7T-ywB0l8Of-19" target="OlbocpSIzX4zNzRgznni-6" edge="1">
          <mxGeometry width="50" height="50" relative="1" as="geometry">
            <mxPoint x="341.7157287525381" y="428.2842712474619" as="sourcePoint" />
            <mxPoint x="230" y="520" as="targetPoint" />
          </mxGeometry>
        </mxCell>
        <mxCell id="OlbocpSIzX4zNzRgznni-9" value="1" style="text;html=1;strokeColor=none;fillColor=none;align=center;verticalAlign=middle;whiteSpace=wrap;rounded=0;" parent="WIyWlLk6GJQsqaUBKTNV-1" vertex="1">
          <mxGeometry x="344" y="275" width="40" height="20" as="geometry" />
        </mxCell>
        <mxCell id="OlbocpSIzX4zNzRgznni-10" value="N" style="text;html=1;strokeColor=none;fillColor=none;align=center;verticalAlign=middle;whiteSpace=wrap;rounded=0;" parent="WIyWlLk6GJQsqaUBKTNV-1" vertex="1">
          <mxGeometry x="260" y="275" width="40" height="20" as="geometry" />
        </mxCell>
        <mxCell id="OlbocpSIzX4zNzRgznni-12" value="Zeitraum" style="ellipse;whiteSpace=wrap;html=1;" parent="WIyWlLk6GJQsqaUBKTNV-1" vertex="1">
          <mxGeometry y="245" width="80" height="50" as="geometry" />
        </mxCell>
        <mxCell id="OlbocpSIzX4zNzRgznni-13" value="" style="endArrow=none;html=1;" parent="WIyWlLk6GJQsqaUBKTNV-1" source="OlbocpSIzX4zNzRgznni-12" target="OlbocpSIzX4zNzRgznni-0" edge="1">
          <mxGeometry width="50" height="50" relative="1" as="geometry">
            <mxPoint x="170" y="340" as="sourcePoint" />
            <mxPoint x="170" y="390" as="targetPoint" />
          </mxGeometry>
        </mxCell>
        <mxCell id="OlbocpSIzX4zNzRgznni-14" value="Equipment" style="ellipse;whiteSpace=wrap;html=1;" parent="WIyWlLk6GJQsqaUBKTNV-1" vertex="1">
          <mxGeometry x="535" y="660" width="80" height="50" as="geometry" />
        </mxCell>
        <mxCell id="OlbocpSIzX4zNzRgznni-15" value="" style="endArrow=none;html=1;" parent="WIyWlLk6GJQsqaUBKTNV-1" source="OlbocpSIzX4zNzRgznni-14" target="OlbocpSIzX4zNzRgznni-50" edge="1">
          <mxGeometry width="50" height="50" relative="1" as="geometry">
            <mxPoint x="495" y="550" as="sourcePoint" />
            <mxPoint x="638.9333333333334" y="540" as="targetPoint" />
          </mxGeometry>
        </mxCell>
        <mxCell id="OlbocpSIzX4zNzRgznni-16" value="" style="endArrow=none;html=1;" parent="WIyWlLk6GJQsqaUBKTNV-1" source="OlbocpSIzX4zNzRgznni-50" target="OlbocpSIzX4zNzRgznni-18" edge="1">
          <mxGeometry width="50" height="50" relative="1" as="geometry">
            <mxPoint x="627.0144306191364" y="540" as="sourcePoint" />
            <mxPoint x="590" y="570" as="targetPoint" />
          </mxGeometry>
        </mxCell>
        <mxCell id="OlbocpSIzX4zNzRgznni-18" value="Kosten" style="ellipse;whiteSpace=wrap;html=1;" parent="WIyWlLk6GJQsqaUBKTNV-1" vertex="1">
          <mxGeometry x="500" y="710" width="80" height="50" as="geometry" />
        </mxCell>
        <mxCell id="OlbocpSIzX4zNzRgznni-30" value="N" style="text;html=1;strokeColor=none;fillColor=none;align=center;verticalAlign=middle;whiteSpace=wrap;rounded=0;" parent="WIyWlLk6GJQsqaUBKTNV-1" vertex="1">
          <mxGeometry x="314" y="560" width="40" height="20" as="geometry" />
        </mxCell>
        <mxCell id="OlbocpSIzX4zNzRgznni-31" value="M" style="text;html=1;strokeColor=none;fillColor=none;align=center;verticalAlign=middle;whiteSpace=wrap;rounded=0;" parent="WIyWlLk6GJQsqaUBKTNV-1" vertex="1">
          <mxGeometry x="434" y="560" width="40" height="20" as="geometry" />
        </mxCell>
        <mxCell id="OlbocpSIzX4zNzRgznni-32" value="erstellt" style="rhombus;whiteSpace=wrap;html=1;rotation=0;" parent="WIyWlLk6GJQsqaUBKTNV-1" vertex="1">
          <mxGeometry x="190" y="470" width="80" height="80" as="geometry" />
        </mxCell>
        <mxCell id="OlbocpSIzX4zNzRgznni-33" value="Urlaubsprofile" style="rounded=0;whiteSpace=wrap;html=1;" parent="WIyWlLk6GJQsqaUBKTNV-1" vertex="1">
          <mxGeometry x="260" y="390" width="120" height="60" as="geometry" />
        </mxCell>
        <mxCell id="OlbocpSIzX4zNzRgznni-36" value="" style="endArrow=none;html=1;" parent="WIyWlLk6GJQsqaUBKTNV-1" source="OlbocpSIzX4zNzRgznni-32" target="OlbocpSIzX4zNzRgznni-33" edge="1">
          <mxGeometry width="50" height="50" relative="1" as="geometry">
            <mxPoint x="290" y="350" as="sourcePoint" />
            <mxPoint x="290" y="305" as="targetPoint" />
          </mxGeometry>
        </mxCell>
        <mxCell id="OlbocpSIzX4zNzRgznni-39" value="Vorname" style="ellipse;whiteSpace=wrap;html=1;" parent="WIyWlLk6GJQsqaUBKTNV-1" vertex="1">
          <mxGeometry y="570" width="70" height="50" as="geometry" />
        </mxCell>
        <mxCell id="OlbocpSIzX4zNzRgznni-40" value="Nachname" style="ellipse;whiteSpace=wrap;html=1;" parent="WIyWlLk6GJQsqaUBKTNV-1" vertex="1">
          <mxGeometry y="620" width="70" height="50" as="geometry" />
        </mxCell>
        <mxCell id="OlbocpSIzX4zNzRgznni-41" value="Geburtsdatum" style="ellipse;whiteSpace=wrap;html=1;" parent="WIyWlLk6GJQsqaUBKTNV-1" vertex="1">
          <mxGeometry y="505" width="80" height="50" as="geometry" />
        </mxCell>
        <mxCell id="OlbocpSIzX4zNzRgznni-42" value="Vorname" style="ellipse;whiteSpace=wrap;html=1;" parent="WIyWlLk6GJQsqaUBKTNV-1" vertex="1">
          <mxGeometry y="570" width="70" height="50" as="geometry" />
        </mxCell>
        <mxCell id="OlbocpSIzX4zNzRgznni-43" value="Nachname" style="ellipse;whiteSpace=wrap;html=1;" parent="WIyWlLk6GJQsqaUBKTNV-1" vertex="1">
          <mxGeometry y="620" width="70" height="50" as="geometry" />
        </mxCell>
        <mxCell id="OlbocpSIzX4zNzRgznni-44" value="BNr" style="ellipse;whiteSpace=wrap;html=1;" parent="WIyWlLk6GJQsqaUBKTNV-1" vertex="1">
          <mxGeometry y="720" width="70" height="50" as="geometry" />
        </mxCell>
        <mxCell id="OlbocpSIzX4zNzRgznni-45" value="KontoNr" style="ellipse;whiteSpace=wrap;html=1;" parent="WIyWlLk6GJQsqaUBKTNV-1" vertex="1">
          <mxGeometry y="670" width="70" height="50" as="geometry" />
        </mxCell>
        <mxCell id="OlbocpSIzX4zNzRgznni-46" value="Benutzer" style="rounded=0;whiteSpace=wrap;html=1;" parent="WIyWlLk6GJQsqaUBKTNV-1" vertex="1">
          <mxGeometry x="90" y="555" width="120" height="60" as="geometry" />
        </mxCell>
        <mxCell id="OlbocpSIzX4zNzRgznni-47" value="" style="endArrow=none;html=1;" parent="WIyWlLk6GJQsqaUBKTNV-1" source="OlbocpSIzX4zNzRgznni-48" target="OlbocpSIzX4zNzRgznni-46" edge="1">
          <mxGeometry width="50" height="50" relative="1" as="geometry">
            <mxPoint x="330" y="310" as="sourcePoint" />
            <mxPoint x="220" y="310" as="targetPoint" />
          </mxGeometry>
        </mxCell>
        <mxCell id="OlbocpSIzX4zNzRgznni-48" value="bewertet" style="rhombus;whiteSpace=wrap;html=1;rotation=0;" parent="WIyWlLk6GJQsqaUBKTNV-1" vertex="1">
          <mxGeometry x="354" y="545" width="80" height="80" as="geometry" />
        </mxCell>
        <mxCell id="OlbocpSIzX4zNzRgznni-49" value="" style="endArrow=none;html=1;" parent="WIyWlLk6GJQsqaUBKTNV-1" source="OlbocpSIzX4zNzRgznni-48" target="OlbocpSIzX4zNzRgznni-50" edge="1">
          <mxGeometry width="50" height="50" relative="1" as="geometry">
            <mxPoint x="350" y="520" as="sourcePoint" />
            <mxPoint x="220" y="520" as="targetPoint" />
          </mxGeometry>
        </mxCell>
        <mxCell id="OlbocpSIzX4zNzRgznni-50" value="Aktivität" style="rounded=0;whiteSpace=wrap;html=1;" parent="WIyWlLk6GJQsqaUBKTNV-1" vertex="1">
          <mxGeometry x="485" y="555" width="120" height="60" as="geometry" />
        </mxCell>
        <mxCell id="B0LaPpAPztrmkvggXKH5-7" value="beinhaltet" style="rhombus;whiteSpace=wrap;html=1;rotation=0;" parent="WIyWlLk6GJQsqaUBKTNV-1" vertex="1">
          <mxGeometry x="374" y="330" width="80" height="80" as="geometry" />
        </mxCell>
        <mxCell id="B0LaPpAPztrmkvggXKH5-8" value="" style="endArrow=none;html=1;" parent="WIyWlLk6GJQsqaUBKTNV-1" source="OlbocpSIzX4zNzRgznni-33" target="B0LaPpAPztrmkvggXKH5-7" edge="1">
          <mxGeometry width="50" height="50" relative="1" as="geometry">
            <mxPoint x="309" y="475" as="sourcePoint" />
            <mxPoint x="334" y="460" as="targetPoint" />
          </mxGeometry>
        </mxCell>
        <mxCell id="B0LaPpAPztrmkvggXKH5-9" value="" style="endArrow=none;html=1;" parent="WIyWlLk6GJQsqaUBKTNV-1" source="B0LaPpAPztrmkvggXKH5-7" target="GFgyIKS2t7T-ywB0l8Of-19" edge="1">
          <mxGeometry width="50" height="50" relative="1" as="geometry">
            <mxPoint x="510" y="380" as="sourcePoint" />
            <mxPoint x="344" y="470" as="targetPoint" />
          </mxGeometry>
        </mxCell>
        <mxCell id="B0LaPpAPztrmkvggXKH5-10" value="" style="endArrow=none;html=1;" parent="WIyWlLk6GJQsqaUBKTNV-1" source="OlbocpSIzX4zNzRgznni-32" target="OlbocpSIzX4zNzRgznni-46" edge="1">
          <mxGeometry width="50" height="50" relative="1" as="geometry">
            <mxPoint x="329" y="495" as="sourcePoint" />
            <mxPoint x="354" y="480" as="targetPoint" />
          </mxGeometry>
        </mxCell>
        <mxCell id="B0LaPpAPztrmkvggXKH5-11" value="N" style="text;html=1;strokeColor=none;fillColor=none;align=center;verticalAlign=middle;whiteSpace=wrap;rounded=0;" parent="WIyWlLk6GJQsqaUBKTNV-1" vertex="1">
          <mxGeometry x="250" y="480" width="40" height="20" as="geometry" />
        </mxCell>
        <mxCell id="B0LaPpAPztrmkvggXKH5-12" value="1" style="text;html=1;strokeColor=none;fillColor=none;align=center;verticalAlign=middle;whiteSpace=wrap;rounded=0;" parent="WIyWlLk6GJQsqaUBKTNV-1" vertex="1">
          <mxGeometry x="190" y="535" width="40" height="20" as="geometry" />
        </mxCell>
        <mxCell id="B0LaPpAPztrmkvggXKH5-13" value="1" style="text;html=1;strokeColor=none;fillColor=none;align=center;verticalAlign=middle;whiteSpace=wrap;rounded=0;" parent="WIyWlLk6GJQsqaUBKTNV-1" vertex="1">
          <mxGeometry x="445" y="350" width="40" height="20" as="geometry" />
        </mxCell>
        <mxCell id="B0LaPpAPztrmkvggXKH5-14" value="N" style="text;html=1;strokeColor=none;fillColor=none;align=center;verticalAlign=middle;whiteSpace=wrap;rounded=0;" parent="WIyWlLk6GJQsqaUBKTNV-1" vertex="1">
          <mxGeometry x="374" y="400" width="40" height="20" as="geometry" />
        </mxCell>
        <mxCell id="B0LaPpAPztrmkvggXKH5-15" value="Namen" style="ellipse;whiteSpace=wrap;html=1;" parent="WIyWlLk6GJQsqaUBKTNV-1" vertex="1">
          <mxGeometry x="350" y="450" width="50" height="40" as="geometry" />
        </mxCell>
        <mxCell id="B0LaPpAPztrmkvggXKH5-16" value="PNr" style="ellipse;whiteSpace=wrap;html=1;" parent="WIyWlLk6GJQsqaUBKTNV-1" vertex="1">
          <mxGeometry x="300" y="460" width="50" height="30" as="geometry" />
        </mxCell>
        <mxCell id="B0LaPpAPztrmkvggXKH5-17" value="" style="endArrow=none;html=1;" parent="WIyWlLk6GJQsqaUBKTNV-1" source="B0LaPpAPztrmkvggXKH5-16" target="OlbocpSIzX4zNzRgznni-33" edge="1">
          <mxGeometry width="50" height="50" relative="1" as="geometry">
            <mxPoint x="160" y="565" as="sourcePoint" />
            <mxPoint x="160" y="450" as="targetPoint" />
          </mxGeometry>
        </mxCell>
        <mxCell id="B0LaPpAPztrmkvggXKH5-18" value="" style="endArrow=none;html=1;" parent="WIyWlLk6GJQsqaUBKTNV-1" source="OlbocpSIzX4zNzRgznni-33" target="B0LaPpAPztrmkvggXKH5-15" edge="1">
          <mxGeometry width="50" height="50" relative="1" as="geometry">
            <mxPoint x="170" y="575" as="sourcePoint" />
            <mxPoint x="170" y="460" as="targetPoint" />
          </mxGeometry>
        </mxCell>
        <mxCell id="vFaqtosGUT193aA-GXQ9-0" value="Jahreszeit" style="ellipse;whiteSpace=wrap;html=1;" parent="WIyWlLk6GJQsqaUBKTNV-1" vertex="1">
          <mxGeometry x="445" y="660" width="80" height="50" as="geometry" />
        </mxCell>
        <mxCell id="vFaqtosGUT193aA-GXQ9-1" value="" style="endArrow=none;html=1;" parent="WIyWlLk6GJQsqaUBKTNV-1" source="OlbocpSIzX4zNzRgznni-50" target="vFaqtosGUT193aA-GXQ9-0" edge="1">
          <mxGeometry width="50" height="50" relative="1" as="geometry">
            <mxPoint x="651.0714285714284" y="625" as="sourcePoint" />
            <mxPoint x="654.1073652052264" y="710.0062257463433" as="targetPoint" />
          </mxGeometry>
        </mxCell>
        <mxCell id="gpWTY39oqQTYcjsggcGD-0" value="BuchungsNr" style="ellipse;whiteSpace=wrap;html=1;" parent="WIyWlLk6GJQsqaUBKTNV-1" vertex="1">
          <mxGeometry x="80" y="210" width="80" height="50" as="geometry" />
        </mxCell>
        <mxCell id="1EI_fElJjJ6vYiuFz2qa-0" value="Unternehmen" style="rounded=0;whiteSpace=wrap;html=1;" vertex="1" parent="WIyWlLk6GJQsqaUBKTNV-1">
          <mxGeometry x="630" y="390" width="120" height="60" as="geometry" />
        </mxCell>
        <mxCell id="1EI_fElJjJ6vYiuFz2qa-9" value="stellt ein" style="rhombus;whiteSpace=wrap;html=1;" vertex="1" parent="WIyWlLk6GJQsqaUBKTNV-1">
          <mxGeometry x="650" y="295" width="80" height="80" as="geometry" />
        </mxCell>
        <mxCell id="1EI_fElJjJ6vYiuFz2qa-10" value="stellt ein" style="rhombus;whiteSpace=wrap;html=1;" vertex="1" parent="WIyWlLk6GJQsqaUBKTNV-1">
          <mxGeometry x="640" y="460" width="80" height="80" as="geometry" />
        </mxCell>
        <mxCell id="1EI_fElJjJ6vYiuFz2qa-11" value="" style="endArrow=none;html=1;entryX=0.5;entryY=0;entryDx=0;entryDy=0;" edge="1" parent="WIyWlLk6GJQsqaUBKTNV-1" source="1EI_fElJjJ6vYiuFz2qa-10" target="OlbocpSIzX4zNzRgznni-50">
          <mxGeometry width="50" height="50" relative="1" as="geometry">
            <mxPoint x="390" y="550" as="sourcePoint" />
            <mxPoint x="440" y="500" as="targetPoint" />
          </mxGeometry>
        </mxCell>
        <mxCell id="1EI_fElJjJ6vYiuFz2qa-13" value="" style="endArrow=none;html=1;" edge="1" parent="WIyWlLk6GJQsqaUBKTNV-1" source="1EI_fElJjJ6vYiuFz2qa-10" target="1EI_fElJjJ6vYiuFz2qa-0">
          <mxGeometry width="50" height="50" relative="1" as="geometry">
            <mxPoint x="160" y="565" as="sourcePoint" />
            <mxPoint x="160" y="450" as="targetPoint" />
          </mxGeometry>
        </mxCell>
        <mxCell id="1EI_fElJjJ6vYiuFz2qa-14" value="" style="endArrow=none;html=1;" edge="1" parent="WIyWlLk6GJQsqaUBKTNV-1" source="1EI_fElJjJ6vYiuFz2qa-9" target="GFgyIKS2t7T-ywB0l8Of-19">
          <mxGeometry width="50" height="50" relative="1" as="geometry">
            <mxPoint x="170" y="575" as="sourcePoint" />
            <mxPoint x="170" y="460" as="targetPoint" />
          </mxGeometry>
        </mxCell>
        <mxCell id="1EI_fElJjJ6vYiuFz2qa-15" value="" style="endArrow=none;html=1;" edge="1" parent="WIyWlLk6GJQsqaUBKTNV-1" source="1EI_fElJjJ6vYiuFz2qa-0" target="1EI_fElJjJ6vYiuFz2qa-9">
          <mxGeometry width="50" height="50" relative="1" as="geometry">
            <mxPoint x="180" y="585" as="sourcePoint" />
            <mxPoint x="180" y="470" as="targetPoint" />
          </mxGeometry>
        </mxCell>
        <mxCell id="1EI_fElJjJ6vYiuFz2qa-16" value="N" style="text;html=1;strokeColor=none;fillColor=none;align=center;verticalAlign=middle;whiteSpace=wrap;rounded=0;" vertex="1" parent="WIyWlLk6GJQsqaUBKTNV-1">
          <mxGeometry x="625" y="300" width="40" height="20" as="geometry" />
        </mxCell>
        <mxCell id="1EI_fElJjJ6vYiuFz2qa-17" value="1" style="text;html=1;strokeColor=none;fillColor=none;align=center;verticalAlign=middle;whiteSpace=wrap;rounded=0;" vertex="1" parent="WIyWlLk6GJQsqaUBKTNV-1">
          <mxGeometry x="710" y="360" width="40" height="20" as="geometry" />
        </mxCell>
        <mxCell id="1EI_fElJjJ6vYiuFz2qa-18" value="N" style="text;html=1;strokeColor=none;fillColor=none;align=center;verticalAlign=middle;whiteSpace=wrap;rounded=0;" vertex="1" parent="WIyWlLk6GJQsqaUBKTNV-1">
          <mxGeometry x="610" y="500" width="40" height="20" as="geometry" />
        </mxCell>
        <mxCell id="1EI_fElJjJ6vYiuFz2qa-21" value="1" style="text;html=1;strokeColor=none;fillColor=none;align=center;verticalAlign=middle;whiteSpace=wrap;rounded=0;" vertex="1" parent="WIyWlLk6GJQsqaUBKTNV-1">
          <mxGeometry x="700" y="460" width="40" height="20" as="geometry" />
        </mxCell>
        <mxCell id="1EI_fElJjJ6vYiuFz2qa-22" value="KontoNr" style="ellipse;whiteSpace=wrap;html=1;" vertex="1" parent="WIyWlLk6GJQsqaUBKTNV-1">
          <mxGeometry x="757" y="390" width="70" height="50" as="geometry" />
        </mxCell>
        <mxCell id="1EI_fElJjJ6vYiuFz2qa-23" value="UNr" style="ellipse;whiteSpace=wrap;html=1;" vertex="1" parent="WIyWlLk6GJQsqaUBKTNV-1">
          <mxGeometry x="750" y="450" width="70" height="50" as="geometry" />
        </mxCell>
        <mxCell id="1EI_fElJjJ6vYiuFz2qa-24" value="" style="endArrow=none;html=1;" edge="1" parent="WIyWlLk6GJQsqaUBKTNV-1" source="1EI_fElJjJ6vYiuFz2qa-0" target="1EI_fElJjJ6vYiuFz2qa-22">
          <mxGeometry width="50" height="50" relative="1" as="geometry">
            <mxPoint x="390" y="550" as="sourcePoint" />
            <mxPoint x="440" y="500" as="targetPoint" />
          </mxGeometry>
        </mxCell>
        <mxCell id="1EI_fElJjJ6vYiuFz2qa-25" value="" style="endArrow=none;html=1;" edge="1" parent="WIyWlLk6GJQsqaUBKTNV-1" source="1EI_fElJjJ6vYiuFz2qa-0" target="1EI_fElJjJ6vYiuFz2qa-23">
          <mxGeometry width="50" height="50" relative="1" as="geometry">
            <mxPoint x="390" y="550" as="sourcePoint" />
            <mxPoint x="440" y="500" as="targetPoint" />
          </mxGeometry>
        </mxCell>
      </root>
    </mxGraphModel>
  </diagram>
</mxfile>
